<?xml version="1.0" encoding="utf-8"?>
<svg version="1.1" xmlns:xlink="http://www.w3.org/1999/xlink" width="25px" height="25px" xmlns="http://www.w3.org/2000/svg">
  <g transform="matrix(1 0 0 1 0 -25 )">
    <path d="M 1 30  A 4 4 0 0 1 4.999999999999999 26 L 20 26  A 4 4 0 0 1 24 30 L 24 45  A 4 4 0 0 1 20 49 L 5 49  A 4 4 0 0 1 1 45 L 1 30  Z " fill-rule="nonzero" fill="#edae5d" stroke="none" />
    <path d="M 0.5 30  A 4.5 4.5 0 0 1 4.999999999999999 25.5 L 20 25.5  A 4.5 4.5 0 0 1 24.5 30 L 24.5 45  A 4.5 4.5 0 0 1 20 49.5 L 5 49.5  A 4.5 4.5 0 0 1 0.5 45 L 0.5 30  Z " stroke-width="1" stroke="#02a6b5" fill="none" stroke-opacity="0.14901960784313725" />
  </g>
</svg>