<?xml version="1.0" encoding="utf-8"?>
<svg version="1.1" xmlns:xlink="http://www.w3.org/1999/xlink" width="8px" height="5px" xmlns="http://www.w3.org/2000/svg">
  <g transform="matrix(1 0 0 1 -86 -18 )">
    <path d="M 8 1.1086956521739133  C 8 1.1940418679549114  7.968569065343259 1.2673107890499191  7.905707196029777 1.3285024154589369  L 4.223325062034739 4.908212560386474  C 4.160463192721258 4.969404186795491  4.086021505376344 5  4 5  C 3.9139784946236564 5  3.8395368072787432 4.969404186795491  3.7766749379652604 4.908212560386474  L 0.09429280397022333 1.3285024154589369  C 0.031430934656741155 1.2673107890499191  0 1.1940418679549114  0 1.1086956521739133  C 0 1.023349436392914  0.031430934656741155 0.9500805152979064  0.09429280397022333 0.8888888888888891  L 0.9181141439205955 0.09178743961352653  C 0.9809760132340778 0.03059581320450866  1.055417700578991 0  1.1414392059553349 0  C 1.2274607113316793 0  1.3019023986765925 0.03059581320450866  1.3647642679900744 0.09178743961352653  L 4 2.6570048309178738  L 6.635235732009925 0.09178743961352653  C 6.698097601323409 0.03059581320450866  6.772539288668321 0  6.858560794044665 0  C 6.94458229942101 0  7.019023986765923 0.03059581320450866  7.0818858560794045 0.09178743961352653  L 7.905707196029777 0.8888888888888891  C 7.968569065343259 0.9500805152979064  8 1.023349436392914  8 1.1086956521739133  Z " fill-rule="nonzero" fill="#ffffff" stroke="none" transform="matrix(1 0 0 1 86 18 )" />
  </g>
</svg>